<svg width="103" height="68" viewBox="0 0 103 68" fill="none" xmlns="http://www.w3.org/2000/svg">
<path d="M28.2881 32.0549L23.2269 29.3476C22.9509 29.1609 22.5828 29.1609 22.3067 29.3476L17.1535 32.2416C16.8774 32.4284 16.6934 32.7084 16.6014 32.9885L15.6812 38.5899C15.4971 39.4301 14.945 40.0836 14.2088 40.2703L0.865762 44.2846C0.0375724 44.5647 -0.238446 44.2846 0.221659 43.4444L22.2147 0.407092C22.3987 0.0336668 22.7668 -0.0596838 23.1349 0.0336726C23.3189 0.127029 23.411 0.22038 23.503 0.407092C31.0487 15.4375 38.4104 30.0011 45.7721 44.0045C46.0481 44.4713 45.8641 44.658 45.404 44.4713L30.8647 40.2703C30.4966 40.1769 30.3125 39.9902 30.2205 39.6168L28.7482 32.615C28.6562 32.335 28.5641 32.1483 28.2881 32.0549ZM23.4109 24.3064L27.2758 26.6403C27.6439 26.827 27.7359 26.7336 27.7359 26.3602C26.2636 17.8647 24.7913 9.36933 23.2269 0.780541C23.2269 0.593828 23.1349 0.500454 22.9508 0.500454C22.7668 0.500454 22.5828 0.593828 22.5828 0.780541L17.9817 26.2668C17.7977 27.2937 18.0737 27.4804 18.9019 26.8269C20.0062 25.8934 21.2024 25.0532 22.4907 24.3064C22.7668 24.1196 23.1349 24.1196 23.4109 24.3064Z" fill="white"/>
<path d="M46.324 30.134L44.9437 30.0406C44.4836 30.0406 44.2075 29.7606 44.2075 29.2938V25.5595C44.2075 25.1861 44.4836 24.906 44.8517 24.906L46.232 24.9994C46.6921 24.9994 46.8761 24.8127 46.8761 24.3459V22.012C46.8761 21.3585 47.1522 21.0784 47.7963 21.0784H51.4772C52.1213 21.0784 52.3974 21.3585 52.3974 22.012V24.4392C52.3974 24.8127 52.5814 25.0927 53.0415 24.9994L56.2623 24.906C56.7224 24.906 56.9984 25.0927 56.9984 25.6529L57.0905 29.2938C57.0905 29.7606 56.9064 30.0406 56.3543 30.0406H53.1336C52.5814 30.0406 52.3974 30.3207 52.3974 30.8808V37.4158C52.3974 38.3494 53.0415 39.0962 53.8697 39.3763C54.6059 39.563 55.25 39.5629 55.9862 39.4696C56.5383 39.3762 56.8144 39.6563 56.9064 40.3098L56.9984 44.2308C56.9984 44.6042 56.8144 44.8843 56.4463 44.8843C54.0538 45.071 52.1213 44.8843 50.5569 44.3241C48.1644 43.3906 46.8761 41.4301 46.8761 38.7228C46.8761 36.0154 46.8761 33.3081 46.8761 30.7875C46.9681 30.3207 46.7841 30.134 46.324 30.134Z" fill="white"/>
<path d="M65.1883 25.933C65.1883 26.6799 65.4643 26.7733 66.0165 26.2131C67.3048 24.9062 68.9611 24.346 70.7095 24.5327C71.0776 24.626 71.3537 24.8128 71.3537 25.2796V29.854C71.3537 30.1341 71.0776 30.3208 70.8015 30.2275C67.6728 29.4806 65.2803 31.2544 65.2803 34.5218C65.3723 37.8827 65.2803 41.1502 65.2803 44.2309C65.2803 44.6977 65.0963 44.8844 64.6362 44.8844L60.2191 44.791C59.851 44.791 59.667 44.6043 59.667 44.2309V25.5596C59.667 25.0929 59.851 24.9061 60.3112 24.9061C61.5994 24.9061 62.8878 24.9061 64.176 24.9061C64.8202 24.9995 65.1883 25.2795 65.1883 25.933Z" fill="white"/>
<path d="M79.3599 44.2308C79.3599 44.6043 79.0838 44.8843 78.7157 44.8843H74.3907C74.0226 44.8843 73.7466 44.6043 73.7466 44.2308L73.5625 25.6529C73.5625 25.2795 73.8386 24.9994 74.2067 24.9994H78.5317C78.8997 24.9994 79.1758 25.2795 79.1758 25.6529L79.3599 44.2308Z" fill="white"/>
<path d="M91.8747 30.0407L94.6353 25.2795C94.7274 25.1862 94.8194 25.0928 94.9114 25.0928L100.985 24.9061C101.261 24.9061 101.445 25.1861 101.261 25.3728L94.9114 34.4284C94.8194 34.5218 94.8194 34.7085 94.9114 34.8018L101.721 44.3242C101.905 44.5109 101.721 44.791 101.445 44.791L95.4636 44.6042C95.3715 44.6042 95.2795 44.5109 95.1875 44.5109L91.6907 39.4696C91.5986 39.2829 91.3226 39.2829 91.1386 39.4696L87.6418 44.6976C87.5497 44.791 87.4577 44.791 87.3657 44.791L81.3843 44.8844C81.1082 44.8844 81.0162 44.6043 81.1082 44.4176L87.9178 34.8018C88.0098 34.7085 88.0098 34.5218 87.9178 34.4284L81.6604 25.3728C81.4764 25.1861 81.6604 24.9061 81.9365 24.9061L87.8258 25.0928C87.9178 25.0928 88.0099 25.1861 88.1019 25.1861L91.3226 30.0407C91.5067 30.2274 91.7827 30.2274 91.8747 30.0407Z" fill="white"/>
<path d="M63.1641 62.9645C51.1093 64.1782 37.3982 61.0974 27.644 53.1621C27.552 53.0688 27.4599 53.0688 27.4599 53.1621L27.2759 53.3488V53.4422C32.061 58.6701 37.8583 62.311 44.5758 64.4582C56.6306 68.2858 68.5013 68.3792 80.096 64.925C89.022 62.2177 97.3039 57.2698 102.089 49.0544C102.365 48.5876 101.997 48.1208 101.537 48.1208H89.6662C89.2981 48.1208 89.022 48.3076 88.93 48.5876C87.3656 51.7617 84.9731 54.2824 81.9364 56.2429C75.863 60.0705 69.6976 62.311 63.1641 62.9645Z" fill="white"/>
<path d="M79.8197 18.9311C79.6356 20.7983 77.8872 22.1987 75.9548 22.0119C73.9303 21.8252 72.458 20.1448 72.642 18.2777C72.826 16.4106 74.5745 15.0102 76.5069 15.1969C78.5314 15.3836 80.0037 17.064 79.8197 18.9311Z" fill="white"/>
</svg>
